<?xml version="1.0" encoding="utf-8"?>
<!-- Generator: Adobe Illustrator 22.1.0, SVG Export Plug-In . SVG Version: 6.00 Build 0)  -->
<svg version="1.1" xmlns="http://www.w3.org/2000/svg" xmlns:xlink="http://www.w3.org/1999/xlink" x="0px" y="0px"
	 viewBox="0 0 1423.8 457.7" style="enable-background:new 0 0 1423.8 457.7;" xml:space="preserve">
<style type="text/css">
	.st0{fill:#650828;}
	.st1{fill:#326920;stroke:#FFFFFF;stroke-width:5;stroke-miterlimit:10;}
	.st2{fill:none;stroke:#FFFFFF;stroke-width:5;stroke-miterlimit:10;}
</style>
<g id="grape3">
	<g>
		<circle class="st0" cx="371.5" cy="333" r="18.4"/>
		<circle class="st0" cx="379.4" cy="293.1" r="20.1"/>
		<circle class="st0" cx="422.2" cy="280.1" r="22.7"/>
		<circle class="st0" cx="304.9" cy="269.7" r="21.3"/>
		<ellipse transform="matrix(0.1248 -0.9922 0.9922 0.1248 55.6681 571.9589)" class="st0" cx="352" cy="254.4" rx="27" ry="24.1"/>
		<circle class="st0" cx="395.5" cy="247.8" r="20.5"/>
		<circle class="st0" cx="315" cy="220.9" r="24.5"/>
		<circle class="st0" cx="366.1" cy="211.3" r="23.8"/>
		<ellipse class="st0" cx="339.7" cy="300" rx="22.9" ry="25.8"/>
		<circle class="st0" cx="444.9" cy="317.6" r="18.4"/>
		<circle class="st0" cx="464.6" cy="345.4" r="17.6"/>
		<circle class="st0" cx="429.3" cy="351.8" r="18.6"/>
		<circle class="st0" cx="494.4" cy="337.4" r="13.1"/>
		<circle class="st0" cx="408.4" cy="321.3" r="18.4"/>
		<path class="st1" d="M254.7,143.2c12.5,37.6,58.6,55.2,83.2,51.1C323.2,147.9,254.7,143.2,254.7,143.2z"/>
		<path class="st1" d="M388.8,99.3c-56.9,20.8-67.7,69.8-51.5,92.7C407.8,167,388.8,99.3,388.8,99.3z"/>
		<path class="st2" d="M263.4,86.8c17.7,9.4,66.7,54.2,65.6,91.7"/>
		<circle class="st2" cx="373" cy="327.2" r="18.4"/>
		<circle class="st2" cx="380.9" cy="287.3" r="20.1"/>
		<circle class="st2" cx="423.7" cy="274.4" r="22.7"/>
		<circle class="st2" cx="306.3" cy="264" r="21.3"/>
		<circle class="st2" cx="353.1" cy="251.6" r="24.1"/>
		<circle class="st2" cx="396.9" cy="242" r="20.5"/>
		<circle class="st2" cx="316.4" cy="215.2" r="24.5"/>
		<circle class="st2" cx="367.6" cy="205.5" r="23.8"/>
		<circle class="st2" cx="341.1" cy="297.1" r="22.9"/>
		<circle class="st2" cx="446.3" cy="311.9" r="18.4"/>
		<circle class="st2" cx="466.1" cy="339.9" r="17.5"/>
		<circle class="st2" cx="431.1" cy="346.2" r="18.4"/>
		<circle class="st2" cx="495.7" cy="331.9" r="13"/>
		<circle class="st2" cx="409.8" cy="315.5" r="18.4"/>
	</g>
</g>
<g id="grape2">
	<g>
		<circle class="st0" cx="756.1" cy="333" r="18.4"/>
		<circle class="st0" cx="764" cy="293.1" r="20.1"/>
		<circle class="st0" cx="806.8" cy="280.1" r="22.7"/>
		<circle class="st0" cx="689.5" cy="269.7" r="21.3"/>
		
			<ellipse transform="matrix(0.1248 -0.9922 0.9922 0.1248 392.3296 953.6187)" class="st0" cx="736.7" cy="254.4" rx="27" ry="24.1"/>
		<circle class="st0" cx="780.1" cy="247.8" r="20.5"/>
		<circle class="st0" cx="699.6" cy="220.9" r="24.5"/>
		<circle class="st0" cx="750.7" cy="211.3" r="23.8"/>
		<ellipse class="st0" cx="724.3" cy="300" rx="22.9" ry="25.8"/>
		<circle class="st0" cx="829.5" cy="317.6" r="18.4"/>
		<circle class="st0" cx="849.2" cy="345.4" r="17.6"/>
		<circle class="st0" cx="813.9" cy="351.8" r="18.6"/>
		<circle class="st0" cx="879" cy="337.4" r="13.1"/>
		<circle class="st0" cx="793" cy="321.3" r="18.4"/>
		<path class="st1" d="M639.3,143.2c12.5,37.6,58.6,55.2,83.2,51.1C707.8,147.9,639.3,143.2,639.3,143.2z"/>
		<path class="st1" d="M773.4,99.3c-56.9,20.8-67.7,69.8-51.5,92.7C792.4,167,773.4,99.3,773.4,99.3z"/>
		<path class="st2" d="M648,86.8c17.7,9.4,66.7,54.2,65.6,91.7"/>
		<circle class="st2" cx="757.6" cy="327.2" r="18.4"/>
		<circle class="st2" cx="765.5" cy="287.3" r="20.1"/>
		<circle class="st2" cx="808.3" cy="274.4" r="22.7"/>
		<circle class="st2" cx="690.9" cy="264" r="21.3"/>
		<circle class="st2" cx="737.7" cy="251.6" r="24.1"/>
		<circle class="st2" cx="781.5" cy="242" r="20.5"/>
		<circle class="st2" cx="701" cy="215.2" r="24.5"/>
		<circle class="st2" cx="752.2" cy="205.5" r="23.8"/>
		<circle class="st2" cx="725.7" cy="297.1" r="22.9"/>
		<circle class="st2" cx="830.9" cy="311.9" r="18.4"/>
		<circle class="st2" cx="850.7" cy="339.9" r="17.5"/>
		<circle class="st2" cx="815.7" cy="346.2" r="18.4"/>
		<circle class="st2" cx="880.3" cy="331.9" r="13"/>
		<circle class="st2" cx="794.4" cy="315.5" r="18.4"/>
	</g>
</g>
<g id="grape1">
	<g>
		<circle class="st0" cx="1117.2" cy="333" r="18.4"/>
		<circle class="st0" cx="1125.1" cy="293.1" r="20.1"/>
		<circle class="st0" cx="1167.9" cy="280.1" r="22.7"/>
		<circle class="st0" cx="1050.6" cy="269.7" r="21.3"/>
		
			<ellipse transform="matrix(0.1248 -0.9922 0.9922 0.1248 708.3362 1311.8629)" class="st0" cx="1097.8" cy="254.4" rx="27" ry="24.1"/>
		<circle class="st0" cx="1141.2" cy="247.8" r="20.5"/>
		<circle class="st0" cx="1060.7" cy="220.9" r="24.5"/>
		<circle class="st0" cx="1111.8" cy="211.3" r="23.8"/>
		<ellipse class="st0" cx="1085.4" cy="300" rx="22.9" ry="25.8"/>
		<circle class="st0" cx="1190.6" cy="317.6" r="18.4"/>
		<circle class="st0" cx="1210.3" cy="345.4" r="17.6"/>
		<circle class="st0" cx="1175" cy="351.8" r="18.6"/>
		<circle class="st0" cx="1240.1" cy="337.4" r="13.1"/>
		<circle class="st0" cx="1154.1" cy="321.3" r="18.4"/>
		<path class="st1" d="M1000.4,143.2c12.5,37.6,58.6,55.2,83.2,51.1C1068.9,147.9,1000.4,143.2,1000.4,143.2z"/>
		<path class="st1" d="M1134.5,99.3c-56.9,20.8-67.7,69.8-51.5,92.7C1153.5,167,1134.5,99.3,1134.5,99.3z"/>
		<path class="st2" d="M1009.1,86.8c17.7,9.4,66.7,54.2,65.6,91.7"/>
		<circle class="st2" cx="1118.7" cy="327.2" r="18.4"/>
		<circle class="st2" cx="1126.6" cy="287.3" r="20.1"/>
		<circle class="st2" cx="1169.4" cy="274.4" r="22.7"/>
		<circle class="st2" cx="1052" cy="264" r="21.3"/>
		<circle class="st2" cx="1098.8" cy="251.6" r="24.1"/>
		<circle class="st2" cx="1142.6" cy="242" r="20.5"/>
		<circle class="st2" cx="1062.1" cy="215.2" r="24.5"/>
		<circle class="st2" cx="1113.3" cy="205.5" r="23.8"/>
		<circle class="st2" cx="1086.8" cy="297.1" r="22.9"/>
		<circle class="st2" cx="1192" cy="311.9" r="18.4"/>
		<circle class="st2" cx="1211.8" cy="339.9" r="17.5"/>
		<circle class="st2" cx="1176.8" cy="346.2" r="18.4"/>
		<circle class="st2" cx="1241.4" cy="331.9" r="13"/>
		<circle class="st2" cx="1155.5" cy="315.5" r="18.4"/>
	</g>
</g>
</svg>
