<?xml version="1.0" encoding="utf-8"?>
<!-- Generator: Adobe Illustrator 22.1.0, SVG Export Plug-In . SVG Version: 6.00 Build 0)  -->
<svg version="1.1" id="Layer_1" xmlns="http://www.w3.org/2000/svg" xmlns:xlink="http://www.w3.org/1999/xlink" x="0px" y="0px"
	 viewBox="0 0 278.8 279.2" style="enable-background:new 0 0 278.8 279.2;" xml:space="preserve">
<style type="text/css">
	.st0{fill:#231F20;stroke:#FFFFFF;stroke-width:1.5;stroke-miterlimit:10;}
	.st1{fill:none;stroke:#FFFFFF;stroke-width:2;stroke-miterlimit:10;}
	.st2{fill:#231F20;stroke:#FFFFFF;stroke-miterlimit:10;}
</style>
<g id="drip_1_">
	<g id="drip">
		<g id="Layer_2_1_">
			<g>
				<g>
					<path class="st0" d="M67.4,129.7c-19.9,13.7-17,40.9-11.4,61.2c6.5,23.4,18,59.6-9.2,75.2c-0.4,0.2,0,0.9,0.4,0.6
						c20.4-11.7,19.6-38.5,14.6-58.3c-6.2-24.2-20.1-60.1,6.1-78.1C68.1,130.1,67.7,129.4,67.4,129.7L67.4,129.7z"/>
				</g>
			</g>
			<g>
				<g>
					<path class="st0" d="M67.3,129.4c-20.9,12.1-20.1,39.5-16.1,60.1c4.6,23.9,13.3,60.8-15.1,74.2c-0.4,0.2-0.1,0.9,0.4,0.6
						c21.3-10,22.5-36.8,19-57c-4.3-24.6-15.3-61.4,12.2-77.3C68.1,129.9,67.8,129.2,67.3,129.4L67.3,129.4z"/>
				</g>
			</g>
		</g>
	</g>
</g>
<g id="bottle_2_">
	<g id="bottle_1_">
		<g id="Layer_1_1_">
			<g id="bottle">
				<g>
					<g>
						<path class="st1" d="M174,62.9c7.3,14.3,11.6,29.1,14.8,44.3c0.2,1.2-1.5,3.6-2.8,4.1c-11.6,4.5-23.8,5.5-36.1,5
							c-18.9-0.7-37.1,2.3-54.8,8.7c-5.5,2-11,3.7-16.5,5.8c-2.8,1-4.6,0.7-5.7-2.4c-5.7-15.4-5.4-12.8,7.3-16.5
							c24.1-7.1,46.1-17.9,65-34.9C153.2,69.7,163,65.6,174,62.9z"/>
						<path class="st1" d="M227.5,45.3c5.2-1.8,10.4-3.5,15.5-5.3c3.9-1.4,7.4-0.2,8.8,3.5c4.3,11.6,8.3,23.4,12,35.2
							c1.3,4-0.9,7.2-4.8,8.7c-5.1,1.9-10.3,3.6-15.3,5.3C238.3,76.9,232.9,61.2,227.5,45.3z"/>
						<path class="st2" d="M177.4,61.6c14.9-5.1,29.8-10.2,44.7-15.3c0,0.1,0.1,0.2,0.1,0.3c-14.9,5.1-29.8,10.2-44.7,15.3
							C177.5,61.8,177.5,61.7,177.4,61.6z"/>
						<path class="st2" d="M195.1,108c14.9-5.1,33.7-10.6,48.6-15.7c0,0.1,0.1,0.2,0.1,0.3c-14.9,5.1-42.8,13.6-57.7,18.7
							C186,111.2,195.1,108.1,195.1,108z"/>
					</g>
				</g>
			</g>
		</g>
	</g>
</g>
</svg>
